# xmcd CD database file
#
# Track frame offsets:
#	182
#	11245
#	24022
#	34792
#	47242
#	58455
#	67357
#	77720
#	92100
#	104092
#	117117
#	130092
#	151767
#	162312
#	172550
#	182105
#	193147
#	202452
#	214305
#	224017
#	237070
#	248570
#	258082
#	269317
#	280950
#	292465
#	301792
#
# Disc length: 4188 seconds
#
# Revision: 2
# Processed by: cddbd v1.4PL0 Copyright (c) Steve Scherf et al.
# Submitted via: Feurio! 1.63 - http://www.feurio.com
#
DISCID=9b105a1b
DTITLE=Lee Dorsey - Working In A Coalmine
DYEAR=1900
DGENRE=blues
TTITLE0=Ya Ya
TTITLE1=Ride Your Pony
TTITLE2=Get Out Of My Life, Woman
TTITLE3=Working In A Coalmine
TTITLE4=Holy Cow
TTITLE5=My Old Car
TTITLE6=Go-Go Girl
TTITLE7=Everything I Do Gonh Be Funky (From Now On)
TTITLE8=Can You Hear Me
TTITLE9=Love Lots Of Lovin'
TTITLE10=Sneakin' Sally Thru The Alley
TTITLE11=Yes We Can
TTITLE12=The Greatest Love
TTITLE13=A Mellow Good Time
TTITLE14=Mexico
TTITLE15=Confusion
TTITLE16=Don't You Ever Leave Me
TTITLE17=Neighbours Daughter
TTITLE18=The Kitty Cat Song
TTITLE19=Shortnin' Bread
TTITLE20=So Long
TTITLE21=People I Wish You Could See Me
TTITLE22=Work Work Work
TTITLE23=Here Comes The Hurt Again
TTITLE24=Hello Mama
TTITLE25=Feelin'
TTITLE26=A Little Dab A Doya
EXTD=
EXTT0=
EXTT1=
EXTT2=
EXTT3=
EXTT4=
EXTT5=
EXTT6=
EXTT7=
EXTT8=
EXTT9=
EXTT10=
EXTT11=
EXTT12=
EXTT13=
EXTT14=
EXTT15=
EXTT16=
EXTT17=
EXTT18=
EXTT19=
EXTT20=
EXTT21=
EXTT22=
EXTT23=
EXTT24=
EXTT25=
EXTT26=
PLAYORDER=
